<?xml version="1.0" encoding="utf-8"?>
<!-- Generator: Adobe Illustrator 23.0.1, SVG Export Plug-In . SVG Version: 6.00 Build 0)  -->
<svg version="1.0" id="Capa_1" xmlns="http://www.w3.org/2000/svg" xmlns:xlink="http://www.w3.org/1999/xlink" x="0px" y="0px"
	 viewBox="0 0 244 244" style="enable-background:new 0 0 244 244;" xml:space="preserve">
<style type="text/css">
	.st0{fill:#FFFFFF;}
	.st1{fill:#CB3524;}
	.st2{fill:#272E61;}
</style>
<title>atm_logo</title>
<title>atm_logo</title>
<path class="st0" d="M217.7,25.8c0-9.7-6.6-12.1-15.7-14.5c-49.5-12.7-100.7-12.7-150.2,0c-8.4,1.8-15.1,4.8-15.1,14.5v132.1l0,0
	c0,10.9,5.4,21.1,13.9,27.7l71.2,53.7l5.4,4.2l5.4-4.2l71.2-53.7c9-6.6,13.9-16.9,13.9-27.7V25.8z"/>
<path class="st1" d="M65.1,153.1l-9,7.2l-9.7,7.2c1.8,4.8,4.8,9,8.4,12.1l0,0l10.3,7.8V153.1z"/>
<polygon class="st1" points="89.8,134.4 89.8,134.4 89.8,206.2 114.5,225.5 114.5,115.1 "/>
<polygon class="st1" points="164.6,77.1 164.6,77.1 139.3,96.4 139.3,225.5 164.6,206.8 "/>
<path class="st1" d="M209.9,144v-102l-5.4,4.2l-15.1,11.5v129.7l10.3-7.8l0,0c1.8-1.2,3.6-3,4.8-4.8c3.6-4.8,5.4-10.3,5.4-15.7V144z
	"/>
<path class="st2" d="M217.7,25.8c0-9.7-6.6-12.1-15.7-14.5c-49.5-12.7-100.7-12.7-150.2,0c-8.4,1.8-15.1,4.8-15.1,14.5v132.1l0,0
	c0,10.9,5.4,21.1,13.9,27.7l71.2,53.7l5.4,4.2l5.4-4.2l71.2-53.7c9-6.6,13.9-16.9,13.9-27.7V25.8z M196.6,24.6L199,18l2.4,6.6h6.6
	l-5.4,4.2l2.4,6.6l-5.4-4.2l-5.4,4.2l0,0l2.4-6.6l-5.4-4.2L196.6,24.6z M147.1,44.5c1.8-1.2,3-2.4,3.6-4.8
	c7.8,2.4,16.9-2.4,15.1-10.9h1.8l5.4,0.6l5.4,1.2l-47.7,36.2V42.7C138.7,46.9,144.1,46.9,147.1,44.5 M156.8,78.9L156.8,78.9
	l-5.4-4.2l-6,4.2l2.4-6.6l-6-4.2h7.2l2.4-6.6l2.4,6.6h7.2l-5.4,4.2L156.8,78.9z M116.4,14.9h7.2l2.4-6.6l1.2,6.6h7.2l-5.4,4.2
	l1.8,6.6l-5.4-4.2l-6,4.2l2.4-6.6L116.4,14.9z M62.1,34.3L62.1,34.3l8.4-1.8l8.4-1.8c0,0.6,0,1.2,0.6,1.2l0,0
	c3,6.6,10.9,9.7,18.1,7.2c1.8,3.6,6,5.4,9.7,6c4.2,0.6,7.8,0,11.5-1.2v32L89.2,98.8c0-0.6,0-1.8,0-2.4v-0.6
	c3.6-2.4,6.6-6.6,7.2-10.9c0.6-1.8,1.2-4.2,0.6-6.6c-0.6,0-1.2,0.6-1.8,0.6c-1.2,0-1.8,0-3,0c1.8,0,4.2-0.6,5.4-2.4l1.2-1.2
	c2.4-2.4,4.8-5.4,5.4-9l6-16.3c-2.4,0-4.8,1.2-6.6,3l-2.4,3.6l-2.4,3.6c-0.6,1.2-1.8,1.8-2.4,2.4l-3.6-3h-0.6L91,53l2.4-4.2
	c1.2-1.8,1.2-4.2,0-6c-0.6,0-1.8,0-1.8,0l-6,3.6L85,45.7c-0.6,0-0.6,0-1.2,0s-1.2,0.6-1.8,1.2l-1.2,1.2L79,49.3h-3.6
	c-1.2,0-1.8,1.8-0.6,3.6c1.2,1.8,1.8,3,1.8,4.8l0,0v0.6c0.6,1.8,0.6,4.2,0.6,6c-0.6,7.8-2.4,15.7-6,22.9l-0.6,0.6l-2.4,4.2
	c-0.6,0.6-0.6,1.8,0,2.4s1.2,0.6,1.8,0.6c1.8,3,2.4,5.4,3,8.4c0.6,3,0,5.4-0.6,8.4l-4.8,3.6l-5.4,4.2V34.3z M111.5,103l-5.4,4.2
	l2.4,6.6l-5.4-4.2l-5.4,4.2l2.4-6.6l-5.4-4.2h7.2l2.4-6.6l2.4,6.6H111.5z M40.9,24.6h6.6L50,18l2.4,6.6h7.2l-6,4.2l2.4,6.6l-6-4.2
	l-6,4.2l0,0l2.4-6.6L40.9,24.6z M59,81.3l-5.4,4.2l1.8,6.6L50,87.9l-6,4.2l2.4-6.6l-5.4-4.2h7.2l2.4-6.6l0,0l2.4,6.6H59z M44,151.9
	l2.4-6.6l-5.4-4.2h7.2l1.8-6.6l2.4,6.6h7.2l-5.4,4.2l2.4,6.6l0,0l-5.4-4.2L44,151.9L44,151.9L44,151.9z M204.4,174.8
	c-1.2,1.8-3,3.6-4.8,4.8l0,0l-72.4,54.9l-72.4-54.9l0,0c-4.2-3-7.2-7.2-8.4-12.1l9.7-7.2l9-7.2l24.7-18.7l24.7-18.7L139.3,97
	L164,78.3l24.7-18.7l21.1-15.7v117C209.9,165.2,208,170.6,204.4,174.8"/>
</svg>
