<svg id="62f9c19d-a481-4708-982f-605d68a77b71" data-name="Layer 1" xmlns="http://www.w3.org/2000/svg" viewBox="0 0 450 450"><title>juventus-fc-logo</title><g id="70c10dac-6562-4224-8b4b-8e0a41040207" data-name="layer1"><g id="fe8041e2-0491-410a-b684-15b15cc10382" data-name="flowRoot2998"><path id="5a0c95a7-821f-467d-9c89-569eeb345aac" data-name="path3007" d="M129.45,0.36v35.7q0,7-4.15,11T113,51h-1.53V43.2h1.46q4,0,6-1.75t2-5.61v-28h-7.87V0.36h16.32Z"/><path id="f13b8123-3918-49b9-a229-9039e01e740c" data-name="path3009" d="M144.86,44h7.79V0.36h8.45V43.27q0,8.09-8.45,8.09h-7.79q-8.45,0-8.45-8.09V0.36h8.45V44Z"/><path id="8936b862-88a0-470d-b405-e543c1a75e58" data-name="path3011" d="M176.61,42.76q3.28,0,5.35-3.31A15,15,0,0,0,184,31.33v-31h8.45V31.62q0,9.32-5.35,14.35t-15.26,5h-4.15V0.36h8.45v42.4h0.44Z"/><path id="4ff7b24b-1d0e-4831-9486-3d387c14eb1b" data-name="path3013" d="M219.55,8.09h-11.8v13.4h9.76l-1.46,7.43h-8.31V43.27h12.39L218.67,51H199.29V0.36h18.8Z"/><path id="4fbf7c0a-e916-43f1-a729-ac541f5d21a1" data-name="path3015" d="M241.49,19V0.36h8.09V51h-8.09V33.73l-7.94-17.27h-0.44V51H225V0.36H233L241,19h0.51Z"/><path id="027cc6d0-1216-4938-bbac-4c6f1d9351d4" data-name="path3017" d="M277.06,0.36l1.46,7.94h-8.16V51h-8.45V8.31h-8.16l1.46-7.94h21.86Z"/><path id="a10e412f-2064-41b0-bb08-db5cc90a7f45" data-name="path3019" d="M291.25,44H299V0.36h8.45V43.27q0,8.09-8.45,8.09h-7.79q-8.45,0-8.45-8.09V0.36h8.45V44Z"/><path id="0c0c93bb-a016-4008-8862-ad2f3264e1ce" data-name="path3021" d="M322.11,34.24V44.29h7.21v-7a8.6,8.6,0,0,0-.73-3.93,7.86,7.86,0,0,0-2.7-2.7l-7.58-5a9.06,9.06,0,0,1-3.2-3.57A9.84,9.84,0,0,1,314,17.63V8.16a8,8,0,0,1,2.22-6A7.69,7.69,0,0,1,321.81,0h7.79q4.15,0,6,2t1.82,6.08v6.63l-8.23,2.19V6.85H322V14.5a6.47,6.47,0,0,0,.73,3.24,7.48,7.48,0,0,0,2.55,2.44l7.21,4.74a10.28,10.28,0,0,1,5,9v9.91q0,3.86-2.19,5.68a8.69,8.69,0,0,1-5.75,1.82h-7.29q-4.3,0-6.37-1.79t-2.08-5.79V34.24h8.3Z"/><path id="ebf5326a-eccd-47bc-b83d-ac7864707e2c" data-name="path3023" d="M111.6,130.58V90.67H247.87V275.12c0,60.2-17.25,82.45-102.41,119.85-11.18-13.79-17.67-25.07-23-38.4,34.82-15.71,45.61-22.26,45.61-22.26,26.81-16.2,33.84-26.12,33.84-67.25V130.58H111.6Z"/></g><path id="5ad661c9-9e4c-4bdf-b47a-097200670bc0" data-name="path3025" d="M291.54,90.67h46.3V292.82c0,44.95-13.83,84.16-43.62,112.55-15.34,15.14-41.79,32.17-69.52,44.64-20-9.63-29.37-14.8-44.67-24.59,75.56-36.75,111.52-60.29,111.52-144.64V90.67Z"/></g></svg>