<svg xmlns="http://www.w3.org/2000/svg" xmlns:xlink="http://www.w3.org/1999/xlink" viewBox="0 0 964.23 964.23"><defs><style>.cls-1{fill:#0056a0;}.cls-2{fill:url(#linear-gradient);}.cls-3{fill:#fff;}.cls-4{fill:#1593d2;}.cls-5{fill:url(#linear-gradient-2);}.cls-6{fill:url(#linear-gradient-3);}</style><linearGradient id="linear-gradient" x1="155.7" y1="155.7" x2="808.53" y2="808.53" gradientUnits="userSpaceOnUse"><stop offset="0.02" stop-color="#7ba7cc"/><stop offset="0.06" stop-color="#6e9fc7"/><stop offset="0.12" stop-color="#4c88bb"/><stop offset="0.21" stop-color="#1665a8"/><stop offset="0.24" stop-color="#0056a0"/></linearGradient><linearGradient id="linear-gradient-2" x1="250.03" y1="250.03" x2="714.2" y2="714.2" gradientTransform="translate(482.11 -199.7) rotate(45)" gradientUnits="userSpaceOnUse"><stop offset="0.43" stop-color="#1593d2"/><stop offset="0.57" stop-color="#229ad6"/><stop offset="0.82" stop-color="#43addf"/><stop offset="0.96" stop-color="#5ab9e5"/></linearGradient><linearGradient id="linear-gradient-3" x1="283.59" y1="276.9" x2="662.66" y2="655.97" gradientUnits="userSpaceOnUse"><stop offset="0.08" stop-color="#c5e8f5"/><stop offset="0.25" stop-color="#eaf7fc"/><stop offset="0.37" stop-color="#fdfeff"/><stop offset="0.78" stop-color="#c5e8f5"/><stop offset="0.83" stop-color="#cbeaf6"/><stop offset="0.9" stop-color="#dbf1f9"/><stop offset="0.98" stop-color="#f6fbfe"/><stop offset="1" stop-color="#fdfeff"/></linearGradient></defs><title>NAPOLO_SVG</title><g id="Layer_2" data-name="Layer 2"><g id="Layer_1-2" data-name="Layer 1"><circle class="cls-1" cx="482.11" cy="482.11" r="482.12" transform="translate(-199.7 482.11) rotate(-45)"/><path class="cls-2" d="M155.7,155.7C68.51,242.89,20.5,358.81,20.5,482.11s48,239.23,135.2,326.42,203.11,135.2,326.41,135.2,239.23-48,326.42-135.2,135.2-203.11,135.2-326.42-48-239.22-135.2-326.41S605.42,20.5,482.11,20.5,242.89,68.51,155.7,155.7Z"/><circle class="cls-3" cx="482.11" cy="482.11" r="354" transform="translate(-199.7 482.11) rotate(-45)"/><circle class="cls-4" cx="482.11" cy="482.11" r="340.33" transform="translate(-199.7 482.11) rotate(-45)"/><circle class="cls-5" cx="482.11" cy="482.12" r="328.38" transform="translate(-199.7 482.11) rotate(-45)"/><path class="cls-6" d="M281,279.5H405.32l202.37,242a2.18,2.18,0,0,0,3.84-1.4V338.31a41.86,41.86,0,0,0-41.85-41.86H557.05V279.5H683.1v16.95h-8.34A37.59,37.59,0,0,0,637.18,334V681.44H620.71L361.61,371.7a1.24,1.24,0,0,0-2.19.8v239a44.41,44.41,0,0,0,44.41,44.42H414v15.33H281V655.89h13.62a37.58,37.58,0,0,0,37.58-37.58V336.54l-18.82-22.49-7.05-8.43a25.68,25.68,0,0,0-19.63-9.17H281Z"/></g></g></svg>