<?xml version="1.0" encoding="utf-8"?>
<!-- Generator: Adobe Illustrator 22.1.0, SVG Export Plug-In . SVG Version: 6.00 Build 0)  -->
<svg version="1.1" id="Layer_1" xmlns="http://www.w3.org/2000/svg" xmlns:xlink="http://www.w3.org/1999/xlink" x="0px" y="0px"
	 viewBox="0 0 600 600" style="enable-background:new 0 0 600 600;" xml:space="preserve">
<style type="text/css">
	.st0{fill:#D29D45;}
	.st1{fill:#023F88;}
	.st2{fill:#E11B22;}
	.st3{fill:#FFFFFF;}
</style>
<g>
	<path class="st0" d="M555.5,4.6H44.5l-0.1,434.2c0,26.7,7.2,47.3,21.4,61.4c14.1,13.9,34.7,20.5,61.3,21.3
		c76.6,2.1,124.8,19,162.7,61.4l10.2,12.4l10.2-12.4c37.8-42.4,86.1-59.3,162.7-61.4c26.6-0.7,47.2-7.3,61.3-21.3
		c14.2-14,21.4-34.7,21.4-61.4L555.5,4.6z"/>
	<path class="st1" d="M472.9,508c-80,2.6-134.8,20.6-172.9,64.3c-38.1-43.7-92.9-61.8-172.9-64.3c-45.9-1.4-69.4-22.7-69.4-69.1
		l0-236.1h484.6l0,236.1C542.3,485.4,518.9,506.6,472.9,508z"/>
	<polygon class="st2" points="57.7,17.9 542.3,17.9 542.3,189.6 57.7,189.6 	"/>
	<polygon class="st0" points="357.4,236.7 357.4,473.6 509,473.6 509,398.2 441.3,398.2 441.3,236.7 	"/>
	<polygon class="st3" points="430.9,246.9 430.9,408.5 498.7,408.5 498.7,463.3 367.7,463.3 367.7,246.9 	"/>
	<path class="st0" d="M81.6,355.1c0,68.5,55.9,124.2,124.6,124.2c68.7,0,124.7-55.7,124.7-124.2c0-68.5-55.9-124.2-124.7-124.2
		C137.5,230.9,81.6,286.6,81.6,355.1z"/>
	<path class="st3" d="M92.5,355.1c0-62.5,51-113.3,113.7-113.3c62.7,0,113.7,50.8,113.7,113.3c0,62.5-51,113.3-113.7,113.3
		C143.5,468.5,92.5,417.6,92.5,355.1z"/>
	<g>
		<path class="st0" d="M272.4,284.7c-7,2.9-10.4-2.2-11.3-5.8c-4.2,4.1-1.9,9.3-0.2,10.7c-1.4,0.7-7,3.9-7.3,10.9
			c5.8,1.6,11.2-1,12.8-2.2c0.4,1.9,2.9,5,8.4,4c-2.8-3-4.2-8.4-0.1-10.6l1.1-0.5c5.9-2.5,9.4,1.9,10.4,4c2,4.4,0.3,9.6-3.8,11.6
			l-26.5,13.6c-13.6,6.8-12.2,19.6-9.3,25.4l12.2,24c2.3,4.8-1.1,8.1-3.6,9.2c-3.9,1.8-8.6,0.2-10.4-3.4l-16.4-31.9
			c0.9,0.7,3.4,1.6,5.5,0.6c-7.2-11.6,5.6-11.2,1.4-21.7c0.9,1.2,4,2,5.4,1.5c-6.4-14.4,8.1-14.2,0.7-25.6c0.8,0.6,3.9,0.4,5.2-0.6
			c-9-8.9-0.9-15-11.8-18.6c1.6,0.1,3.6-1.6,4-3.5c-7.5,0.5-11.1-9.1-21.8-7.8c-4.4,0.6-8.3,1.8-12.2,3c-2.3,0.7-4-0.1-6,0.9
			c-0.8,0.8-1.7,3.3-1.7,3.3c-2.8,0.6-7.4,1.9-8.7,3.2c-0.4,1.4,0,2.8,0.5,3.8c0,0,0.7,0.2,0.8,1c0.8,3.9,2.1,7.4,4.3,9.4l6.7-1.6
			c0,0,5.3,2.9,7,7.3c1,2.5,0.6,4.1-2.6,4.2c-2.7,0-7.9-1.1-10-1.4c-0.9,2.2-1.3,6.6,0.7,8c1.1,0.8,6.7,0.5,8.4,0.4
			c-0.4,6.1-4.8,9.8-12.4,7.3c-21.6-7-35.5-9-43.3-26.5c0.3-1.2,1.8-13.2-6.9-16.2c1.1,3.4,2,7.3,1,10.6c-1.4-5.6-5.6-9.2-12.2-8.6
			c3.7,2.6,6,5.9,6.1,9.3c-2.8-2-7.8-2.7-11.6-1.1c17.9,8.1,11.8,21.8,3.9,23.1c3.3,2.7,8.5,2,11.7,0l10.7,13.7c-2,0.4-4,2-4.7,3.3
			c2.2-0.1,5.6,0.2,7,1.6c0.8,2.2,1.9,6,0.4,11.6c4.2-2.2,5.9-5.2,6.5-7.9l15.8,9.2c-8,4.2-31.7,16.1-43.9,10.5
			c-1.8-0.8-13.8-6-20.4,0.7c4.5-0.1,8.8,1.7,9.6,3.5c-4.6,0.5-10.2,2.5-11.6,7.6c1.7-1.1,7.5-1.5,10.5-1c-2.6,2.1-4.7,5.8-4.4,10.6
			c0,0,9.6-8.9,17.5-6.6c3.7,1.1,1.9,7.5,1.2,9c6-0.9,7.5-6.7,7.5-7.2l18.4-0.8c1.2,0.6,1.8,3.2,0.6,5.3c3.1-0.9,4.5-2.7,5.3-5.7
			c3.9,0.5,6,3.1,6.4,7c2.7-2.7,2.3-7,1.2-9.2l20-4.8l6.9,7.6c0,0-35.8,22.3-48,21.7c1.9,4.3,10.7,3.8,14.7,2.3
			c-1.2,2.2-0.4,5.5-0.4,5.5s2.7,0.2,5.5-3.4c0,0,5.4,10.7,4.5,12.6c-2.5,5.5-20,6.7-20,6.7c-3.2-2.5-11.9-5.5-16.8-1.8
			c3.7,0.2,6.8,3,7.2,4.8c-2,0-9.2,0.9-10.8,7.5c4-1.8,8.9-1.8,10.4-1c-2.3,1.6-5.1,5.4-4.4,10c5.2-5.4,12.3-7.9,17.1-6.8
			c2.8,0.6,2.9,4.8,2.1,7.8c4-1,6.3-5.1,7.1-7.3l19.1-5.9c0,0,0.6,1.7,0.6,4.4c2.4-0.3,4.8-3.2,4.9-5.3c0,0,3.6,5.4,9.2,4.5
			c-3.3-5.5-7.8-19.7-7.8-23.4c0-4.6,14-7.3,16.3-8l6.8,9.8c0,0-6.9,3.3-8,7.7c6-2.6,10.9-2.4,12.4-2c1.3,1.4,2.6,3.9,3.2,6.8
			c1.3-0.8,3-3.3,3.2-5.8c15.3,4.8,15.3,7.2,11.6,22.6c-6.9-0.7-18-1-20.4,6c4.2-1.2,9-0.4,11.6,0.6c-3.3,1.1-9.1,4.5-7.7,11.2
			c0,0,5.7-6.3,12.2-5.2c-3.5,2.1-7.8,6.6-4,12.2c3.5-7.1,11.5-7.8,14.9-7.1l4.8-10.3c1.9-4.2,7.3-3.7,7.9,1.7
			c5.1-6.2-0.6-13-2.3-13.8l4.4-9.4c1.4,0.1,5,1.1,7.2-1.5c-2.2-0.7-4.2-2.1-5.1-3.7c2.2,0.2,8.2,1.1,11-2.8
			c-9.5-1.9-31.8-15.4-33.5-23.8c4.4,3.5,10.7,4.5,16.1,2.1c3.5-1.6,6.2-4.3,7.6-7.8c4-8.1,14.4-1.5,16-16.6
			c-4.2,5.9-13.4,2-15.2,9.3c-3.7-16.2,19.8-5.6,20-30.1c-5.8,10-26.5,6.4-24.8,19.1c-8.9-26.2,30.9-9.2,28.7-43.2
			c-7.8,15.3-38.6,11.3-35.7,29.4l-1.7-3.3c-2.3-4.8-1.8-11.4,5.4-15.3l27.2-14l0,0c7.4-3.8,10.5-12.9,7.1-21
			C290.6,287.2,282.9,279.8,272.4,284.7z M200.5,278c0,0-0.6-2.1,2-2.6c3-0.6,5.8,1.2,8.2,2C209.2,279.2,203.4,280.3,200.5,278z
			 M200.6,293.8c-11.7,5.2-21.5,4.9-30.4-0.1C172.1,300.1,189.1,308.3,200.6,293.8z"/>
	</g>
	<path class="st3" d="M223.5,164.6c-4.5,4.3-9.9,6.7-17.1,6.7c-7.2,0-12.7-2.4-17.2-6.7c-6.4-6.2-6.2-13.8-6.2-24.4
		c0-10.6-0.2-18.2,6.2-24.4c4.5-4.3,10-6.7,17.2-6.7c7.2,0,12.6,2.4,17.1,6.7c6.4,6.2,6.3,13.8,6.3,24.4
		C229.8,150.8,229.9,158.4,223.5,164.6z M214.3,123c-1.8-2-4.5-3.3-7.9-3.3c-3.4,0-6.2,1.3-8,3.3c-2.4,2.6-3,5.4-3,17.2
		s0.6,14.6,3,17.2c1.8,2,4.6,3.3,8,3.3c3.4,0,6.1-1.3,7.9-3.3c2.4-2.6,3.1-5.4,3.1-17.2S216.7,125.6,214.3,123z"/>
	<polygon class="st3" points="125.9,160.2 99.4,160.2 99.4,110.3 98.7,109.6 87.7,109.6 87,110.3 87,170.2 87.7,170.8 125.9,170.8 
		126.6,170.2 126.6,160.8 	"/>
	<polygon class="st3" points="173.5,109.6 161.1,109.6 149.4,134.3 137.6,109.6 124.8,109.6 124.4,110.1 143.2,145.7 143.2,170.2 
		143.9,170.8 154.8,170.8 155.5,170.2 155.5,145.7 174.2,110.3 	"/>
	<polygon class="st3" points="284.5,109.6 283.9,110.3 283.9,147.1 258.8,109.6 248.4,109.6 247.7,110.3 247.7,170.2 248.4,170.8 
		259.5,170.8 260.1,170.2 260.1,133.3 285.2,170.8 295.6,170.8 296.3,170.2 296.3,110.3 295.6,109.6 	"/>
	<path class="st3" d="M409.3,110.3l-0.7-0.7h-8.9l-0.6,0.6l-22.6,60.1l0.5,0.5h12.2l3.8-10.8h22.5l3.7,10.8h12.2l0.5-0.5
		L409.3,110.3z M396.5,149.9l8-22.3l7.7,22.3H396.5z"/>
	<polygon class="st3" points="444,109.6 443.4,110.3 443.4,170.2 444,170.8 455.1,170.8 455.8,170.2 455.8,110.3 455.1,109.6 	"/>
	<polygon class="st3" points="353.1,109.6 352.5,110.3 352.5,147.1 327.3,109.6 317,109.6 316.3,110.3 316.3,170.2 317,170.8 
		328,170.8 328.7,170.2 328.7,133.3 353.8,170.8 364.2,170.8 364.8,170.2 364.8,110.3 364.2,109.6 	"/>
	<path class="st3" d="M511.6,139.8c-2.7-2.4-6.3-4-12.1-4.7l-7.5-1c-2.6-0.3-4.6-1.3-5.9-2.4c-1.3-1.2-1.9-2.8-1.9-4.4
		c0-4.2,3.2-7.7,9.8-7.7c4,0,8.6,0.5,12.5,3.8l0.9,0l6.9-6.6v-0.8c-5.3-4.8-11.5-6.7-20-6.7c-13.7,0-22.1,7.6-22.1,18.6
		c0,5.2,1.5,9.1,4.5,12c2.9,2.7,6.9,4.3,12.3,5.1l7.7,1c2.9,0.4,4.4,1,5.6,2.1c1.3,1.2,2,3,2,5.2c0,4.9-3.9,7.6-11.2,7.6
		c-5.7,0-10.9-1.2-14.8-4.8l-0.9,0l-7.1,6.8v0.9c6.1,5.7,13.3,7.6,22.7,7.6c13.3,0,23.5-6.7,23.5-18.6
		C516.5,147.4,515,142.9,511.6,139.8z"/>
	<path class="st3" d="M122.1,90.7c-4.2,4.2-9.4,6.6-16.3,6.6c-6.9,0-12.1-2.4-16.4-6.6c-6.1-6.1-5.9-13.6-5.9-24
		c0-10.4-0.2-17.9,5.9-24c4.2-4.2,9.5-6.6,16.4-6.6c6.9,0,12,2.4,16.3,6.6c6.1,6.1,6,13.6,6,24C128.1,77.1,128.2,84.6,122.1,90.7z
		 M113.3,49.8c-1.7-1.9-4.3-3.2-7.5-3.2c-3.2,0-5.9,1.3-7.6,3.2c-2.3,2.5-2.9,5.3-2.9,16.9c0,11.6,0.6,14.4,2.9,16.9
		c1.7,1.9,4.4,3.2,7.6,3.2c3.2,0,5.8-1.3,7.5-3.2c2.3-2.5,3-5.3,3-16.9C116.3,55.1,115.6,52.3,113.3,49.8z"/>
	<path class="st3" d="M408.3,92.6l-4.7-4.7c3.8-5.6,3.7-12.2,3.7-21.3c0-10.4,0.1-17.9-6-24c-4.2-4.2-9.4-6.6-16.3-6.6
		c-6.9,0-12.1,2.4-16.4,6.6c-6.1,6.1-5.9,13.6-5.9,24c0,10.4-0.2,17.9,5.9,24c4.2,4.2,9.5,6.6,16.4,6.6c4.7,0,8.8-1.1,12.2-3.3
		l4.9,4.9h0.9l5.3-5.2V92.6z M394.4,78.8l-4.5-4.5l-6.3,6.2l5.3,5.2c-1.1,0.8-2.5,1.1-3.9,1.1c-3.2,0-5.9-1.3-7.6-3.2
		c-2.3-2.5-2.9-5.3-2.9-16.9c0-11.6,0.6-14.4,2.9-16.9c1.7-1.9,4.4-3.2,7.6-3.2c3.2,0,5.8,1.3,7.5,3.2c2.3,2.5,3,5.3,3,16.9
		C395.5,72.8,395.4,76.2,394.4,78.8z"/>
	<polygon class="st3" points="174.7,86.3 150.6,86.3 150.6,37.3 149.9,36.6 139.5,36.6 138.8,37.3 138.8,96.1 139.5,96.7 
		174.7,96.7 175.3,96.1 175.3,86.9 	"/>
	<polygon class="st3" points="215.1,36.6 203.3,36.6 192.2,60.9 181,36.6 169.2,36.6 168.5,37.3 186.3,72.1 186.3,96.1 187,96.7 
		197.3,96.7 198,96.1 198,72.1 215.8,37.3 	"/>
	<polygon class="st3" points="266.3,36.6 250.7,69.1 234.9,36.6 223.9,36.6 223.3,37.3 223.3,96.1 223.9,96.7 234.4,96.7 
		235.1,96.1 235.1,61.7 246.7,84.5 254.6,84.5 266.2,61.7 266.2,96.1 266.8,96.7 277.3,96.7 277.9,96.1 277.9,37.3 277.3,36.6 	"/>
	<polygon class="st3" points="351.9,36.6 341.4,36.6 340.8,37.3 340.8,96.1 341.4,96.7 351.9,96.7 352.5,96.1 352.5,37.3 	"/>
	<path class="st3" d="M451,36.6l-0.7,0.7v38.4c0,6.9-4.2,11.1-10.5,11.1c-6.4,0-10.4-4.1-10.4-11.1V37.3l-0.7-0.7h-10.5l-0.7,0.7
		v38.9c0,12.8,9.8,21.1,22.2,21.1c12.4,0,22.2-8.4,22.2-21.1V37.3l-0.7-0.7H451z"/>
	<polygon class="st3" points="484.6,86.3 484.6,71.7 507.8,71.7 508.4,71 508.4,61.9 507.8,61.2 484.6,61.2 484.6,47.1 511.9,47.1 
		512.6,46.4 512.6,37.3 511.9,36.6 473.5,36.6 472.8,37.3 472.8,96.1 473.5,96.7 511.9,96.7 512.6,96.1 512.6,86.9 511.9,86.3 	"/>
	<path class="st3" d="M312.6,36.6h-22.7l-0.7,0.7v58.8l0.7,0.7h10.5l0.7-0.7V76.2h11.6c12.5,0,19.9-9.6,19.9-19.8
		C332.5,46.2,325.1,36.6,312.6,36.6z M312,65.7h-11V47.1h11c5.3,0,8.7,4.4,8.7,9.3C320.8,61.3,317.4,65.7,312,65.7z"/>
</g>
</svg>
